HIERARCHY
ROOT Hips
{
	OFFSET -0.001795 -0.223333 0.028219
	CHANNELS 6 Xposition Yposition Zposition Zrotation Yrotation Xrotation 
	JOINT LeftUpLeg
	{
		OFFSET 0.069520 -0.091406 -0.006815
		CHANNELS 3 Zrotation Yrotation Xrotation
		JOINT LeftLeg
		{
			OFFSET 0.034277 -0.375199 -0.004496
			CHANNELS 3 Zrotation Yrotation Xrotation
			JOINT LeftFoot
			{
				OFFSET -0.013596 -0.397961 -0.043693
				CHANNELS 3 Zrotation Yrotation Xrotation
				JOINT LeftToe
				{
					OFFSET 0.026358 -0.055791 0.119288
					CHANNELS 3 Zrotation Yrotation Xrotation
					End Site
					{
						OFFSET 0.000000 0.000000 0.000000
					}
				}
			}
		}
	}
	JOINT RightUpLeg
	{
		OFFSET -0.067670 -0.090522 -0.004320
		CHANNELS 3 Zrotation Yrotation Xrotation
		JOINT RightLeg
		{
			OFFSET -0.038290 -0.382569 -0.008850
			CHANNELS 3 Zrotation Yrotation Xrotation
			JOINT RightFoot
			{
				OFFSET 0.015774 -0.398415 -0.042312
				CHANNELS 3 Zrotation Yrotation Xrotation
				JOINT RightToe
				{
					OFFSET -0.025372 -0.048144 0.123348
					CHANNELS 3 Zrotation Yrotation Xrotation
					End Site
					{
						OFFSET 0.000000 0.000000 0.000000
					}
				}
			}
		}
	}
	JOINT Spine
	{
		OFFSET -0.002533 0.108963 -0.026696
		CHANNELS 3 Zrotation Yrotation Xrotation
		JOINT Spine1
		{
			OFFSET 0.005487 0.135180 0.001092
			CHANNELS 3 Zrotation Yrotation Xrotation
			JOINT Spine2
			{
				OFFSET 0.001457 0.052922 0.025425
				CHANNELS 3 Zrotation Yrotation Xrotation
				JOINT Neck
				{
					OFFSET -0.002778 0.213870 -0.042857
					CHANNELS 3 Zrotation Yrotation Xrotation
					JOINT Head
					{
						OFFSET 0.005152 0.064970 0.051349
						CHANNELS 3 Zrotation Yrotation Xrotation
						End Site
						{
							OFFSET 0.000000 0.000000 0.000000
						}
					}
				}
				JOINT LeftShoulder
				{
					OFFSET 0.078845 0.121749 -0.034090
					CHANNELS 3 Zrotation Yrotation Xrotation
					JOINT LeftArm
					{
						OFFSET 0.090977 0.030469 -0.008868
						CHANNELS 3 Zrotation Yrotation Xrotation
						JOINT LeftForeArm
						{
							OFFSET 0.259612 -0.012772 -0.027456
							CHANNELS 3 Zrotation Yrotation Xrotation
							JOINT LeftHand
							{
								OFFSET 0.249234 0.008986 -0.001171
								CHANNELS 3 Zrotation Yrotation Xrotation
								End Site
								{
									OFFSET 0.000000 0.000000 0.000000
								}
							}
						}
					}
				}
				JOINT RightShoulder
				{
					OFFSET -0.081759 0.118833 -0.038615
					CHANNELS 3 Zrotation Yrotation Xrotation
					JOINT RightArm
					{
						OFFSET -0.096012 0.032551 -0.009143
						CHANNELS 3 Zrotation Yrotation Xrotation
						JOINT RightForeArm
						{
							OFFSET -0.253742 -0.013329 -0.021401
							CHANNELS 3 Zrotation Yrotation Xrotation
							JOINT RightHand
							{
								OFFSET -0.255298 0.007772 -0.005559
								CHANNELS 3 Zrotation Yrotation Xrotation
								End Site
								{
									OFFSET 0.000000 0.000000 0.000000
								}
							}
						}
					}
				}
			}
		}
	}
}
MOTION
Frames: 7
Frame Time: 0.050000
-0.608582 0.725580 0.406502 -21.192189 -73.732194 23.468723 12.630587 26.742599 -48.397255 32.403200 -5.759382 86.559032 -8.888645 -21.373659 -4.085694 0.000000 0.000000 0.000000 -10.854375 20.831425 -58.675655 60.449574 -14.706839 71.305708 -33.291648 -62.123375 22.193537 0.000000 0.000000 0.000000 1.349133 6.865065 34.285463 6.775478 -1.366665 -23.619424 -4.787432 -7.445179 24.139691 15.071888 -6.607457 -43.523418 0.000000 0.000000 0.000000 -16.044941 -17.492623 18.831068 -29.198099 -38.291781 3.222777 51.253459 -34.724239 -10.853533 0.000000 0.000000 0.000000 12.337892 8.468018 -6.735449 51.414967 3.965981 -4.567637 51.786210 64.662919 21.410670 0.000000 0.000000 0.000000 
-0.637637 0.879894 0.465572 -21.218907 -76.821301 31.224253 12.447161 15.139416 -32.964750 12.455576 15.897005 61.590645 -4.391051 -6.033114 7.110597 0.000000 0.000000 0.000000 -7.690335 12.352202 -42.375567 30.246072 7.294451 58.444849 -14.943759 -39.631394 7.952725 0.000000 0.000000 0.000000 1.033122 1.577388 17.903926 9.616493 0.023434 -26.493608 -8.024806 -3.905981 26.583023 12.206454 -6.879053 -41.728998 0.000000 0.000000 0.000000 -6.934478 -7.507356 9.841499 -64.259815 -28.515517 11.902478 96.940350 -59.860930 -35.285273 0.000000 0.000000 0.000000 -2.502620 -4.159474 -3.100351 59.227199 15.990516 -7.631534 94.534556 48.816841 27.303515 0.000000 0.000000 0.000000 
-0.669313 1.064338 0.530132 -42.762452 -80.766037 55.099912 5.881992 5.683517 -21.081130 8.463250 9.239483 34.693706 -3.978357 -5.224761 28.173371 0.000000 0.000000 0.000000 -6.136918 7.433665 -30.791406 11.142841 6.010099 29.577705 -9.744306 -27.595399 34.725402 0.000000 0.000000 0.000000 6.130071 -0.401874 6.419622 9.003705 0.335689 -25.667612 -4.445401 -0.674018 27.046602 7.143705 -6.937101 -37.515995 0.000000 0.000000 0.000000 19.302219 6.305162 -11.726772 -108.219627 6.500651 27.202994 114.861264 -50.471732 -42.243739 0.000000 0.000000 0.000000 -20.550154 -12.636681 6.579038 70.161023 31.695273 -11.359517 85.322688 34.150238 6.356719 0.000000 0.000000 0.000000 
-0.690860 1.221127 0.582328 -65.788839 -81.692458 77.931976 -0.325132 3.286309 -20.797641 13.636477 6.559222 31.649347 -7.755164 -7.671497 34.842095 0.000000 0.000000 0.000000 -9.048522 6.311221 -26.825554 14.166835 4.375147 20.307374 -19.856130 -26.566978 54.205634 0.000000 0.000000 0.000000 9.923380 0.058160 1.626380 7.837374 1.007188 -27.727937 -0.446014 5.047292 30.041059 1.775845 -5.849730 -39.721426 0.000000 0.000000 0.000000 66.118284 12.963303 -29.998766 -173.157357 23.130321 38.436077 104.937021 -0.622011 -36.953579 0.000000 0.000000 0.000000 -36.538345 -22.342816 15.200190 92.511859 35.643150 -18.313511 63.570503 2.553160 -10.277297 0.000000 0.000000 0.000000 
-0.700024 1.345073 0.619479 -38.518137 -82.364073 47.846226 -6.138108 1.119150 -19.371355 8.217108 6.321993 26.261154 0.020903 -2.899615 31.571220 0.000000 0.000000 0.000000 -6.391184 6.430648 -27.364166 8.353385 7.593927 31.644616 -18.424479 -24.458840 60.815632 0.000000 0.000000 0.000000 9.249395 -0.240876 4.571414 6.420722 1.812475 -31.002239 7.437021 24.515725 34.909243 3.617178 -4.380816 -42.790814 0.000000 0.000000 0.000000 93.973913 18.478423 -13.663422 -175.712478 35.661287 -21.415760 149.888920 -70.594496 -167.798411 0.000000 0.000000 0.000000 -55.220824 -52.819269 23.688255 105.569971 15.824212 -21.288885 41.521063 -22.338816 -12.362953 0.000000 0.000000 0.000000 
-0.703161 1.424995 0.650123 -8.005077 -70.613968 14.996022 -13.042915 -0.490062 -20.684597 10.576346 1.011864 18.938932 0.193257 -1.810178 35.385318 0.000000 0.000000 0.000000 -5.926761 5.510171 -26.218750 10.517004 6.068677 31.286386 -19.122011 -27.096485 61.810753 0.000000 0.000000 0.000000 8.880010 -0.354364 5.317072 5.432946 0.508738 -29.051123 15.532846 35.839124 35.834196 3.024407 -2.428611 -35.440173 0.000000 0.000000 0.000000 75.409331 36.151650 0.983279 -105.899774 44.537314 -29.162987 -125.122177 -23.221957 48.916158 0.000000 0.000000 0.000000 8.857491 -80.104935 -37.287863 80.477705 3.953397 -5.107521 28.991931 -16.424846 -5.828258 0.000000 0.000000 0.000000 
-0.706724 1.477203 0.678233 -0.744100 -53.458040 6.607331 -13.745736 -1.794635 -17.737498 3.376677 -0.027949 9.022895 2.703994 3.557341 39.907623 0.000000 0.000000 0.000000 -12.035716 4.571773 -26.346102 10.702772 1.966659 21.463198 -13.622331 -25.656512 63.810320 0.000000 0.000000 0.000000 8.194834 -0.528305 6.678595 6.647712 -0.090650 -28.845761 17.963872 30.087125 34.907413 -1.362542 1.475005 -14.973490 0.000000 0.000000 0.000000 36.353555 36.018368 -4.464503 -52.754223 18.153097 -11.480646 -137.990639 -31.685924 95.517142 0.000000 0.000000 0.000000 31.028409 -33.467867 -30.079019 37.270863 -9.862416 -6.245193 34.624339 23.806347 6.278082 0.000000 0.000000 0.000000 
